<?xml version="1.0" encoding="UTF-8" standalone="no"?>
<!-- Created with Inkscape (http://www.inkscape.org/) -->

<svg
   xmlns:dc="http://purl.org/dc/elements/1.1/"
   xmlns:cc="http://creativecommons.org/ns#"
   xmlns:rdf="http://www.w3.org/1999/02/22-rdf-syntax-ns#"
   xmlns:svg="http://www.w3.org/2000/svg"
   xmlns="http://www.w3.org/2000/svg"
   xmlns:sodipodi="http://sodipodi.sourceforge.net/DTD/sodipodi-0.dtd"
   xmlns:inkscape="http://www.inkscape.org/namespaces/inkscape"
   width="415.43475"
   height="647.66321"
   id="svg2"
   version="1.1"
   inkscape:version="0.91 r13725"
   sodipodi:docname="icarus.svg">
  <defs
     id="defs4" />
  <sodipodi:namedview
     id="base"
     pagecolor="#ffffff"
     bordercolor="#666666"
     borderopacity="1.0"
     inkscape:pageopacity="0.0"
     inkscape:pageshadow="2"
     inkscape:zoom="0.80635592"
     inkscape:cx="450.98453"
     inkscape:cy="407.67573"
     inkscape:document-units="px"
     inkscape:current-layer="layer1"
     showgrid="false"
     inkscape:window-width="1366"
     inkscape:window-height="704"
     inkscape:window-x="0"
     inkscape:window-y="27"
     inkscape:window-maximized="1"
     fit-margin-top="0"
     fit-margin-left="0"
     fit-margin-right="0"
     fit-margin-bottom="0" />
  <metadata
     id="metadata7">
    <rdf:RDF>
      <cc:Work
         rdf:about="">
        <dc:format>image/svg+xml</dc:format>
        <dc:type
           rdf:resource="http://purl.org/dc/dcmitype/StillImage" />
        <dc:title></dc:title>
      </cc:Work>
    </rdf:RDF>
  </metadata>
  <g
     inkscape:label="Layer 1"
     inkscape:groupmode="layer"
     id="layer1"
     transform="translate(-163.69386,-227.37618)">
    <g
       id="layer1-8"
       inkscape:label="Layer 1"
       transform="matrix(0.5270724,0,0,0.60146822,178.18791,299.20558)">
      <path
         id="path3050-7"
         style="fill:#000000"
         d="m 302.82028,955.11305 c 1.0024,-1.35487 3.239,-4.39237 4.9703,-6.75 1.7312,-2.35762 4.3937,-7.66158 5.9166,-11.78658 2.5842,-6.99979 2.8248,-9.00064 3.6078,-30 0.4614,-12.375 1.2279,-39.15 1.7035,-59.5 0.8767,-37.51937 1.2417,-41.1869 5.623,-56.5 5.6414,-19.71732 7.1995,-44.93193 3.8931,-63.00402 l -1.6083,-8.79069 4.554,-17.35265 c 6.4779,-24.68358 8.9386,-39.85794 10.1924,-62.85264 0.6674,-12.23851 4.5683,-45.88234 6.957,-60 0.791,-4.675 1.9437,-11.75105 2.5617,-15.72455 1.4433,-9.28035 3.6562,-12.27545 9.0695,-12.27545 5.37,0 8.8804,3.43868 8.8862,8.70455 0,3.64159 3.4415,31.26098 6.3986,51.41046 0.7761,5.28826 1.7045,14.73826 2.063,21 0.7463,13.03355 2.7942,26.92703 5.6204,38.12988 1.0746,4.25969 2.6501,11.45969 3.5012,16 0.8511,4.54031 2.8409,13.43011 4.4218,19.75511 4.2186,16.87803 4.5003,20.48181 2.4785,31.71061 -2.3838,13.23925 -1.601,27.69658 2.3709,43.78939 1.629,6.6 3.2773,14.7 3.663,18 0.3856,3.3 1.6043,9.6 2.7081,14 1.6325,6.50729 2.157,13.22448 2.8109,36 0.5243,18.26087 1.3389,30.6087 2.3419,35.5 0.9489,4.62691 1.5562,13.05465 1.5854,22 0.064,19.68645 1.1005,25.10408 7.205,37.66476 4.2141,8.67071 5.6853,10.77684 8.4486,12.09456 3.3072,1.57707 3.4068,1.55337 8.6122,-2.05631 14.4612,-10.02801 16.1363,-11.81691 18.6902,-19.96045 2.1319,-6.79783 2.2722,-8.29412 1.3509,-14.4139 -1.1139,-7.39863 -4.0909,-19.72186 -7.4476,-30.82866 -2.2528,-7.45385 -3.4413,-19.43169 -4.4215,-44.5567 -0.6156,-15.7822 1.3244,-37.48161 5.1805,-57.9433 0.9136,-4.84764 1.413,-14.39615 1.4121,-27 -0.001,-20.13514 -1.2033,-29.89858 -6.0412,-49.0769 -2.7608,-10.94435 -4.2809,-30.30315 -3.6453,-46.4231 0.4305,-10.9205 1.4423,-18.2893 4.5998,-33.5 4.8619,-23.42122 6.6634,-38.74059 7.7614,-66 1.4758,-36.63588 0.6089,-54.80107 -3.7699,-79 -1.045,-5.775 -1.9007,-12.11582 -1.9016,-14.0907 0,-5.17568 -3.4618,-21.38173 -7.7724,-36.4093 l -3.7291,-13 0.1825,-25.5 c 0.2184,-30.50512 2.6675,-54.25114 5.6547,-54.82642 2.9485,-0.56783 4.3506,1.56592 4.9813,7.58104 0.3314,3.15996 2.1629,10.92038 4.0701,17.24538 5.2962,17.56437 6.4702,22.76809 7.2191,32 0.5466,6.73645 1.507,10.36729 4.6291,17.5 2.1667,4.95 4.3102,9.45 4.7634,10 1.0055,1.22037 33.1759,54.42283 40.6167,67.17083 6.468,11.08124 12.7674,25.15858 15.2945,34.17878 1.0247,3.65772 3.6696,10.73252 5.8775,15.72179 2.2079,4.98926 4.9189,13.42961 6.0244,18.75631 2.1056,10.1455 4.8046,16.17229 7.2427,16.17229 1.1296,0 1.5076,-1.95267 1.7361,-8.96779 0.2868,-8.8057 1.6422,-12.53221 4.5582,-12.53221 1.7325,0 6.6497,5.25479 6.6497,7.10632 0,2.3193 2.9863,13.946 4.1465,16.14368 1.3246,2.509 4.347,2.15708 5.6284,-0.65537 0.797,-1.74921 0.7921,-3.39564 -0.018,-6.03558 -0.9403,-3.06396 -0.8493,-3.895 0.5833,-5.32768 2.2358,-2.23573 4.4974,-0.86088 7.16,4.35256 2.1501,4.20999 3.2842,5.37668 5.25,5.40076 1.8631,0.0228 1.5124,-4.06581 -0.7504,-8.74928 -4.0278,-8.33662 -4.9727,-19.23541 -1.6676,-19.23541 1.4463,0 5.2034,3.83362 8.5752,8.75 2.888,4.21095 6.0928,4.39159 6.0928,0.34343 0,-1.99121 -1.8537,-5.37671 -5.8861,-10.75 -7.4709,-9.95524 -12.1139,-18.71767 -12.1139,-22.86175 0,-4.90125 1.6661,-5.68412 8.0553,-3.78504 9.4167,2.79896 17.2988,1.27445 15.6483,-3.02663 -0.3134,-0.81678 -8.1375,-5.4099 -17.3867,-10.20693 -9.2493,-4.79702 -20.2384,-10.69273 -24.4203,-13.10156 l -7.6034,-4.37971 -4.5351,-9.74091 c -4.6066,-9.89435 -8.3838,-20.37238 -15.768,-43.7409 -2.584,-8.17748 -6.5507,-17.63704 -10.693,-25.5 -3.6219,-6.875 -7.4092,-14.14247 -8.4162,-16.14993 -2.2261,-4.43769 -8.243,-27.00649 -10.856,-40.71935 -1.0504,-5.51235 -2.2001,-16.23432 -2.555,-23.82659 -0.9938,-21.26203 -5.1521,-42.18659 -11.0686,-55.69776 -2.8482,-6.50431 -4.7703,-9.24451 -9.7255,-13.86529 -7.7069,-7.18665 -9.9699,-8.38818 -26.6758,-14.16354 -26.0997,-9.02285 -28.4844,-10.23907 -36.1338,-18.42885 l -6.8662,-7.3513 0,-8.92366 c 0,-8.15905 0.2909,-9.49988 3.3954,-15.64869 1.8675,-3.69877 5.8964,-9.85686 8.9532,-13.68465 4.1687,-5.22028 6.4835,-9.46889 9.2623,-17 2.0376,-5.52222 4.0837,-10.46789 4.5469,-10.99039 1.6779,-1.89269 0.7653,-4.21919 -3.1578,-8.05 -3.9626,-3.86934 -4.0002,-3.97653 -4.0216,-11.45295 -0.057,-19.95898 -6.0075,-36.600933 -15.1114,-42.263193 -9.0836,-5.64971 -12.1551,-6.88493 -22.0539,-8.86936 -9.7404,-1.95264 -10.4824,-1.96935 -17.2457,-0.38833 -3.8871,0.90866 -11.4317,3.70358 -16.7658,6.21093 -9.614,4.51919 -9.7454,4.62951 -15.1086,12.688653 -6.1126,9.18518 -7.693,15.21564 -7.693,29.35527 l 0,8.1172 -3.75,2.7952 c -2.0625,1.53736 -4.0806,3.24776 -4.4847,3.80089 -2.5921,3.54823 2.52,22.05314 9.4492,34.20457 6.7523,11.8413 10.4664,22.40423 11.7714,33.47862 1.2591,10.68418 0.4394,14.0178 -4.1848,17.01897 -2.4284,1.5761 -19.2582,7.22932 -39.2873,13.19686 -9.5096,2.83334 -13.5952,4.65958 -19.774,8.83893 -7.0046,4.73798 -8.2767,6.12256 -12.6492,13.76774 -6.0592,10.5945 -13.8213,35.29619 -17.5971,56 -1.4544,7.975 -3.7007,18.775 -4.9918,24 -2.8306,11.45491 -5.1734,24.19128 -6.0702,33 -0.7044,6.91821 -1.0301,7.5667 -13.1287,26.13973 -6.8851,10.56964 -8.2398,13.39629 -15.2805,31.88415 -5.6931,14.94936 -10.3719,24.52098 -17.5859,35.97612 -7.2872,11.57148 -15.8016,18.11603 -37.1612,28.56384 -13.3438,6.52693 -16.2293,8.31415 -16.25,10.06484 -0.041,3.45587 4.99,5.00181 11.1443,3.42451 4.6949,-1.20326 5.1009,-1.14778 7.399,1.01116 1.3373,1.25635 2.4315,2.99677 2.4315,3.8676 0,0.87082 -3.0375,6.01726 -6.75,11.43653 -11.7334,17.12768 -12.25,17.98511 -12.25,20.33245 0,4.16653 3.8212,2.75232 10,-3.70093 6.0985,-6.36941 8.5692,-7.2385 11.4689,-4.03432 1.717,1.89724 1.6354,2.29308 -2.345,11.36889 -4.0708,9.28219 -4.6926,12.35919 -3.2431,16.05058 0.5992,1.5262 1.9326,1.93174 7.0027,2.12983 7.7715,0.30364 8.7154,-0.53734 14.7583,-13.15021 5.4101,-11.29226 6.6551,-12.51569 9.6627,-9.49552 1.7865,1.79396 2.1955,3.35716 2.1955,8.39144 0,5.01921 0.3203,6.25086 1.6974,6.52625 2.3093,0.46182 5.3716,-5.78181 6.2715,-12.78694 1.3368,-10.40484 7.755,-31.0918 13.8063,-44.5 2.876,-6.37248 6.933,-12.64934 13.8965,-21.5 12.9186,-16.41972 23.8028,-31.59239 38.0197,-53 12.7689,-19.22717 11.5244,-16.05239 18.3454,-46.79886 1.5948,-7.18875 8.2804,-30.08337 10.3522,-35.45114 1.1223,-2.9076 3.8406,-3.6204 5.911,-1.55 0.7558,0.75584 1.2015,4.54968 1.2042,10.25 0,4.9775 1.1254,17.825 2.4958,28.55 1.3704,10.725 2.4935,21.76835 2.4958,24.54077 0,2.8901 -1.9658,12.27653 -4.6131,22 -2.5395,9.32758 -5.0343,19.88423 -5.5441,23.45923 -0.5098,3.575 -2.4501,14.825 -4.3119,25 -1.8618,10.175 -3.6731,20.975 -4.0251,24 -0.352,3.025 -1.4783,10.225 -2.5028,16 -2.6057,14.68683 -4.4154,51.63984 -3.624,74 0.802,22.66342 1.5492,28.71535 5.1238,41.5 2.0996,7.50928 2.8193,12.36618 2.8893,19.5 0.1521,15.47866 -2.3402,45.80078 -4.5206,55 -6.3719,26.88255 -7.7918,41.90686 -5.4571,57.74585 5.5815,37.86662 9.2552,82.73995 8.2484,100.75415 -0.6929,12.39979 -3.6221,26.55951 -7.6156,36.81369 -6.814,17.49658 -2.5163,30.59588 13.7288,41.84561 7.7615,5.37489 11.247,5.97069 13.9056,2.37728 z M 656.75549,75.136671 c 13.77653,-17.335413 35.49047,-51.827493 37.9415,-60.269186 0.66376,-2.286072 -3.93379,4.670655 -10.21677,15.459404 -11.45333,19.666908 -21.94464,34.469585 -33.23164,46.88803 -9.11837,10.032434 -13.03893,15.794683 -10.74648,15.794683 1.12732,0 8.44133,-8.042819 16.25339,-17.872931 z m 1.29058,45.033039 c 7.20303,-6.09382 13.09643,-11.7967 13.09643,-12.67307 0,-0.87638 -1.23964,-0.69184 -2.75476,0.41006 -1.51512,1.1019 -4.28989,1.74052 -6.16614,1.41913 -2.38107,-0.40786 0.18005,-2.49959 8.48013,-6.92591 10.63389,-5.670919 25.10532,-18.964689 25.10532,-23.062295 0,-0.863504 -2.53235,-1.06822 -5.69182,-0.460108 -3.1305,0.602526 -5.69182,0.739973 -5.69182,0.30542 0,-0.434537 4.31673,-3.217494 9.59273,-6.184317 10.64992,-5.988745 17.22122,-12.709716 21.7849,-22.281161 2.81576,-5.905515 2.80724,-6.29039 -0.11763,-5.306864 -1.73443,0.58324 -5.39782,1.554048 -8.1409,2.157355 -4.61616,1.015282 -4.4535,0.686154 2.18532,-4.421813 3.94498,-3.035306 8.76453,-8.253055 10.7101,-11.594977 2.96087,-5.085772 9.52002,-23.9055025 9.52002,-27.3149096 0,-2.0081693 -4.27654,-0.9326178 -9.6678,2.4314502 -5.71904,3.5686174 -7.80894,1.9656234 -2.4852,-1.9061855 1.66386,-1.2100723 5.49783,-5.977739 8.51993,-10.5948075 6.61985,-10.1136016 7.13032,-18.9801886 1.7285,-30.0233816 -3.86746,-7.906453 -14.86098,-22.430163 -16.97818,-22.430163 -0.64022,0 -2.18564,8.416904 -3.43426,18.70423 -1.24861,10.287327 -3.90709,24.315499 -5.90774,31.1737172 -4.14941,14.2242095 -3.9362,16.8255772 0.51953,6.3386557 l 3.04641,-7.1699548 -1.12252,6.6503929 c -3.89444,23.072757 -26.8683,62.955496 -53.21281,92.377682 -4.55421,5.086254 -8.28039,9.762311 -8.28039,10.391244 0,3.79808 6.30382,-0.667355 17.07545,-12.09579 6.78275,-7.196307 12.62098,-12.831434 12.97385,-12.52249 1.49938,1.312738 -9.96184,15.868868 -21.56518,27.38851 -6.8882,6.8385 -11.54644,12.71921 -10.35163,13.06821 1.19481,0.34901 4.66511,-1.45822 7.71177,-4.01607 8.99489,-7.55174 6.32695,-2.75599 -3.94699,7.0949 -5.2175,5.00266 -9.48637,9.78361 -9.48637,10.62435 0,0.84073 2.21744,1.52861 4.92766,1.52861 3.50225,0 8.71603,-3.20499 18.02409,-11.07965 z m 9.17221,28.77038 c 3.58091,-3.30151 6.91962,-5.64444 7.41934,-5.20653 1.25199,1.09713 -5.46289,7.39891 -10.11434,9.49211 -2.35152,1.05821 -1.31735,-0.58632 2.695,-4.28558 z m -3.13572,20.58388 c 13.75591,-9.12545 16.35633,-11.67304 11.9151,-11.67304 -1.62683,0 -2.95788,-0.74817 -2.95788,-1.66259 0,-0.91443 1.31467,-1.6626 2.92149,-1.6626 4.21978,0 16.42765,-5.74209 20.40803,-9.5991 3.30953,-3.20693 3.2661,-3.33377 -1.50055,-4.38216 -6.13314,-1.34891 -4.69137,-3.68992 3.20907,-5.21051 3.60679,-0.6942 10.06563,-4.70266 16.10505,-9.99508 11.18014,-9.79724 13.40803,-15.06613 5.21657,-12.33696 -6.00836,2.00182 -6.51694,2.00736 -6.51694,0.0708 0,-0.85282 1.76365,-2.04109 3.91921,-2.64061 7.73333,-2.15087 17.64327,-11.767502 23.88177,-23.174921 7.42302,-13.573386 8.44635,-20.286858 2.68011,-17.582559 -5.90223,2.76806 -5.90395,2.204373 -0.0233,-7.592038 3.66506,-6.105593 5.59047,-11.765975 5.59047,-16.43505 0,-8.838439 -5.13057,-23.169304 -9.54938,-26.673645 -3.10367,-2.461344 -3.69224,-1.603177 -9.37918,13.675303 -6.75848,18.157268 -22.65025,45.740488 -35.54206,61.690108 -4.65635,5.760772 -14.79585,16.405372 -22.53226,23.654702 -7.73641,7.24933 -14.06621,13.63435 -14.06621,14.18893 0,0.55457 3.39595,-1.34862 7.54654,-4.22934 12.50725,-8.68067 33.76039,-29.901726 45.21908,-45.150845 5.93617,-7.899785 11.83904,-15.755562 13.1175,-17.457281 5.9662,-7.941417 -1.62075,6.318754 -9.89921,18.60622 -10.61183,15.750824 -17.89402,23.880276 -36.77801,41.057136 -7.78771,7.0837 -13.73118,13.25476 -13.20773,13.71347 0.52346,0.45871 6.2182,-3.34235 12.65496,-8.4468 6.43679,-5.10445 11.70323,-8.67452 11.70323,-7.93348 0,0.74103 -5.87906,6.60213 -13.06456,13.02463 -10.92609,9.7659 -13.7313,13.47447 -17.13787,22.65685 -2.24032,6.03878 -5.29872,12.39822 -6.79647,14.13209 -3.11872,3.61046 -3.56203,5.64642 -1.22949,5.64642 0.88789,0 7.22973,-3.72517 14.093,-8.27815 z m -57.44732,-44.60723 c 0,-0.73966 1.21085,-2.79594 2.69078,-4.56953 3.53024,-4.23072 5.89343,-2.08726 2.67611,2.42726 -2.49689,3.50362 -5.36689,4.64922 -5.36689,2.14227 z m 1.61514,8.85408 c 3.19152,-3.18533 6.79256,-8.98365 8.00232,-12.88513 1.20974,-3.90149 2.52288,-8.07624 2.91808,-9.27723 1.14981,-3.49414 4.53991,-0.50887 4.53991,3.99775 0,6.3202 -5.32428,16.06984 -11.00693,20.15551 -8.07428,5.80518 -10.96831,4.51139 -4.45338,-1.9909 z m -47.55635,39.87122 c 14.06388,-5.64224 46.93025,-24.7085 53.8331,-31.22933 8.80934,-8.3218 14.68502,-18.09115 17.027,-28.31032 2.74751,-11.98868 -0.62821,-17.810553 -10.25876,-17.692608 -8.92902,0.109399 -15.1265,3.040443 -26.42451,12.497318 -14.44887,12.09429 -32.44771,24.08164 -49.89698,33.23175 -18.09689,9.48969 -17.04874,8.80799 -15.55523,10.11678 1.76075,1.54295 11.63497,-2.34533 28.74273,-11.31832 8.29664,-4.35157 15.54825,-7.50582 16.1147,-7.00944 1.64368,1.4404 -11.12079,9.92508 -25.03334,16.63992 -7.04362,3.39958 -12.80659,6.7846 -12.80659,7.52224 0,1.94416 6.5203,-0.55522 23.70126,-9.08525 8.33994,-4.14063 15.5139,-7.22138 15.94214,-6.84611 1.5946,1.39736 -8.85611,7.84319 -35.84885,22.11097 -1.56525,0.82736 -2.27037,2.03404 -1.56694,2.68152 0.70345,0.64747 9.4889,-1.978 19.52327,-5.8344 10.03436,-3.85641 18.68144,-6.62855 19.21577,-6.16033 0.53431,0.46824 -7.39739,4.79021 -17.626,9.6044 -17.84264,8.3978 -21.3505,10.66898 -21.41433,13.86476 -0.0435,2.17717 10.73762,-0.13218 22.33156,-4.78355 z m 63.97583,-7.48831 c 1.8945,-1.83446 3.85603,-2.9748 4.35896,-2.53408 1.27483,1.11717 -3.45725,5.86947 -5.84449,5.86947 -1.07746,0 -0.40898,-1.50093 1.48553,-3.33539 z m 3.52648,6.88971 c 7.03899,-6.26251 9.32344,-9.63389 10.13917,-14.96338 1.29884,-8.48581 4.34791,-9.07558 4.34791,-0.84101 0,7.06102 -5.62159,15.78374 -13.23323,20.53332 -9.78712,6.10704 -10.48308,3.48219 -1.25385,-4.72893 z m -51.91746,30.38591 c 15.80898,-2.64551 45.13101,-14.20118 56.69001,-22.34126 9.07917,-6.39377 17.90205,-21.21871 18.10292,-30.41805 0.12939,-5.92307 -0.57085,-7.14573 -5.22955,-9.13171 -7.86065,-3.35095 -17.35094,-1.1571 -26.57075,6.14232 -14.72325,11.65655 -35.31136,22.75176 -60.54241,32.62716 -9.13062,3.57373 -16.60113,7.0905 -16.60113,7.81508 0,1.90949 -0.29332,1.99198 21.92228,-6.16428 11.20803,-4.11493 21.31933,-7.4579 22.46957,-7.42882 3.6938,0.0934 -5.08236,5.10951 -20.58622,11.7663 -25.59694,10.99038 -24.14462,12.15596 5.12778,4.11535 8.08712,-2.2214 14.70386,-3.37497 14.70386,-2.56353 0,2.01672 -4.86455,4.13691 -21.19548,9.23803 -15.26557,4.76833 -17.79091,6.15933 -15.94191,8.78101 1.27488,1.80765 3.40396,1.61996 27.65103,-2.4376 z m 85.27982,11.50046 c 0.57534,-0.55318 -0.0264,-1.34133 -1.33733,-1.75145 -4.04979,-1.26705 -0.53845,-3.78688 5.27692,-3.78688 5.7342,0 18.92512,-4.726 18.92512,-6.78044 0,-0.64724 -1.28066,-1.60744 -2.84591,-2.1338 -4.33756,-1.4586 -3.39194,-4.38447 1.42296,-4.40279 6.85964,-0.0261 23.11726,-7.4454 26.64068,-12.15772 4.34024,-5.80469 4.19681,-6.11462 -2.82991,-6.11462 -7.9871,0 -5.08686,-2.17094 7.79729,-5.83655 6.71126,-1.90939 12.95027,-5.28902 18.02554,-9.76431 7.67372,-6.76655 16.05614,-20.07863 13.85682,-22.00593 -0.62496,-0.54764 -3.79591,0.66386 -7.04656,2.69223 -3.25066,2.02837 -6.49435,3.17613 -7.2082,2.55057 -0.71387,-0.62555 0.40251,-1.95287 2.48082,-2.94959 13.56309,-6.50462 25.97683,-26.03455 25.97683,-40.86803 0,-8.236015 -4.06861,-20.249085 -6.858,-20.249085 -0.37909,0 -3.72819,5.607611 -7.44243,12.461356 -14.97227,27.627729 -34.13772,48.138089 -67.67144,72.420239 -10.48788,7.5944 -24.77278,16.80148 -31.74426,20.4602 -15.20104,7.97772 -12.69203,10.3031 2.84618,2.63784 22.26702,-10.9847 34.26193,-19.27124 57.84118,-39.95878 13.30462,-11.67299 24.18704,-20.71749 24.18313,-20.09891 -0.0514,8.16649 -43.75773,45.25756 -71.61494,60.77567 -7.56538,4.21435 -13.75523,8.43474 -13.75523,9.37865 0,1.9277 6.92508,-0.90515 23.35285,-9.55298 6.06131,-3.19077 11.47681,-5.40159 12.03443,-4.91296 1.27417,1.11659 -12.58182,9.97611 -24.47796,15.65119 -7.90434,3.77079 -9.01205,4.96528 -9.01205,9.7181 0,2.98039 -0.54091,6.65412 -1.20201,8.16384 -1.1127,2.54098 -0.66172,2.54713 6.06867,0.0828 3.9989,-1.46417 7.74144,-3.11473 8.31681,-3.66789 z m -52.18925,1.89049 c 2.02557,-1.34256 5.01377,-2.41723 6.64046,-2.38816 2.36449,0.0422 2.21905,0.54239 -0.72525,2.4939 -2.02557,1.34257 -5.01378,2.41724 -6.64046,2.38816 -2.36449,-0.0422 -2.21905,-0.54239 0.72525,-2.4939 z m 0.26543,7.80334 c 5.30204,-2.56233 12.77255,-6.75251 16.60114,-9.3115 8.18796,-5.47281 9.09687,-3.41233 1.83212,4.15344 -5.72379,5.96096 -14.82486,9.89244 -22.79492,9.84695 -4.75415,-0.0271 -4.32092,-0.49284 4.36166,-4.68889 z m -22.06046,12.98175 c 20.3252,-1.87571 39.52351,-8.92243 46.3207,-17.00195 4.2079,-5.00174 5.14804,-15.06699 1.69033,-18.09701 -4.60403,-4.03456 -20.08621,-3.64829 -34.33788,0.8567 -7.50586,2.37261 -22.36983,5.87158 -33.03104,7.77546 -19.80637,3.53702 -21.88419,4.15402 -19.88617,5.9049 1.22528,1.07372 31.66034,-2.10276 36.84181,-3.84514 2.05006,-0.68938 2.65533,-0.39808 1.77283,0.85321 -1.57696,2.23596 -12.38217,4.95511 -28.5143,7.17562 -14.66148,2.01811 -18.2,2.97125 -18.2,4.90232 0,2.08459 30.61979,1.98478 37.34762,-0.1217 4.99952,-1.56537 5.104,-1.51123 1.6341,0.84671 -5.81774,3.95341 -15.92362,5.79406 -31.86695,5.8041 -15.40195,0.01 -19.76837,2.44151 -7.58909,4.22659 3.91312,0.57353 7.96854,1.29654 9.01204,1.60669 3.80085,1.12963 21.28827,0.73016 38.806,-0.88647 z m 60.8878,21.64051 c 20.27166,-5.48184 29.95524,-10.50391 24.10324,-12.50033 -5.84886,-1.99533 -3.5601,-4.10213 4.45644,-4.10213 10.33684,0 19.05835,-3.84751 30.85546,-13.61194 l 9.74832,-8.06865 -7.58909,1.08225 -7.58909,1.08223 12.54776,-10.60877 c 10.95886,-9.26539 13.09847,-12.10834 16.89679,-22.45098 7.1154,-19.37482 4.40274,-20.17676 -13.75934,-4.06766 -8.52208,7.55877 -20.23331,16.55339 -26.02495,19.98804 -13.76776,8.16478 -43.82788,21.70821 -57.01344,25.68711 -5.73924,1.73189 -9.49674,3.43662 -8.34997,3.78828 4.85964,1.49025 48.65017,-14.83613 62.05717,-23.13672 8.16696,-5.05636 8.19409,-2.28025 0.0425,4.34389 -8.38883,6.8169 -23.16134,14.0707 -45.01922,22.10597 l -15.37085,5.65056 9.48636,-0.97952 9.48636,-0.97954 -6.26005,3.43854 c -3.44302,1.89118 -5.81415,4.07073 -5.2692,4.84344 0.54497,0.7727 -2.41162,2.74943 -6.57018,4.39274 -7.177,2.83606 -7.40035,3.14341 -4.39742,6.05116 1.73997,1.68484 3.57697,3.06335 4.08221,3.06335 0.50522,0 9.25784,-2.2551 19.45027,-5.01132 z m -45.62153,18.6138 c 0,-2.00933 3.59951,-4.352 4.91527,-3.199 0.47754,0.41847 -0.43304,1.70725 -2.0235,2.86395 -1.80315,1.31138 -2.89177,1.43752 -2.89177,0.33505 z m 4.37466,3.80226 c 2.92781,-2.25717 6.10267,-4.10395 7.05523,-4.10395 2.74864,0 -0.14343,4.91637 -3.93929,6.69658 -6.54025,3.06729 -8.42421,1.49974 -3.11594,-2.59263 z m 8.83233,7.22073 c 7.26398,-6.83254 3.38973,-23.28942 -7.28101,-30.92801 -7.61489,-5.45108 -21.02781,-9.16461 -40.82213,-11.30208 -11.59037,-1.25157 -23.63471,-2.70091 -26.76521,-3.22072 -5.3811,-0.89353 -5.49256,-0.80586 -2.04197,1.60597 2.00742,1.4031 6.70317,2.99597 10.43499,3.53969 15.96698,2.32641 16.04302,4.02979 0.14477,3.24122 -16.24487,-0.80578 -16.52333,-0.37567 -2.84591,4.39599 5.19164,1.8112 5.32591,2.04177 1.52802,2.62376 -2.2901,0.35093 -7.19929,-0.0964 -10.90931,-0.9941 -3.7101,-0.89768 -6.74559,-0.99523 -6.74559,-0.21678 0,2.89563 11.39916,8.35635 31.48964,15.08495 11.71959,3.92506 24.79709,9.67754 30.17172,13.27181 10.91919,7.30218 18.03291,8.17426 23.64199,2.8983 z m -40.63641,20.37957 c -0.60037,-0.85125 -0.22386,-2.01766 0.83666,-2.59203 1.06052,-0.57436 1.92822,0.12204 1.92822,1.54772 0,2.9204 -1.13848,3.3504 -2.76488,1.04431 z m -6.72148,8.1981 c -2.12886,-1.2056 -1.12738,-1.61809 3.9748,-1.63714 7.92756,-0.0296 12.41285,-3.60046 13.60627,-10.83234 l 0.82311,-4.9878 0.28427,5.17923 c 0.53936,9.82674 -10.36582,16.99129 -18.68845,12.27805 z m 19.44704,1.48455 c 4.05796,-4.29665 4.41398,-16.42216 0.66856,-22.76916 -4.07714,-6.90911 -8.42594,-9.59602 -24.65491,-15.23303 -8.23585,-2.86066 -20.53078,-7.78516 -27.32205,-10.94335 -6.79127,-3.15819 -13.12326,-5.74215 -14.07108,-5.74215 -3.49817,0 0.75707,3.26124 10.87298,8.33309 5.71721,2.86645 10.39491,5.98504 10.39491,6.93019 0,0.94516 -1.35998,1.26113 -3.02216,0.70219 -1.6622,-0.55895 -5.29074,-1.49812 -8.06341,-2.08706 l -5.04124,-1.07078 4.74318,3.51646 c 4.13846,3.06814 4.29214,3.52351 1.20539,3.57177 -1.94578,0.0304 -7.71304,-1.93606 -12.81609,-4.36995 -5.10308,-2.4339 -9.75223,-4.00996 -10.33149,-3.50236 -0.57924,0.5076 7.32243,7.26769 17.55928,15.02242 10.23685,7.75474 23.25324,18.39149 28.92532,23.63722 10.22224,9.45389 10.38897,9.52885 18.97273,8.52888 5.47331,-0.63762 9.88158,-2.30245 11.98008,-4.52438 z m -47.90613,15.14144 c 1.56525,-0.88643 4.12656,-1.61168 5.69181,-1.61168 2.5297,0 2.5297,0.17907 0,1.61168 -1.56525,0.88643 -4.12656,1.61167 -5.69181,1.61167 -2.52969,0 -2.52969,-0.17906 0,-1.61167 z m -6.32424,8.86718 c -2.5904,-2.26998 -1.11969,-3.87939 3.54507,-3.87939 2.64547,0 6.91433,-1.20829 9.48637,-2.68511 5.71384,-3.28077 6.29841,-0.39884 0.88189,4.34771 -3.68963,3.23325 -11.35899,4.4552 -13.91333,2.21679 z m 20.24022,-0.53674 c 6.45809,-9.58042 3.10933,-18.25178 -12.73011,-32.9636 -10.5602,-9.8084 -31.21454,-24.42355 -32.68932,-23.13118 -0.50328,0.441 3.08424,3.88671 7.97224,7.6571 9.03597,6.96997 9.33075,8.65287 0.76394,4.36137 -7.50078,-3.75747 -9.07733,-2.86499 -2.84591,1.61106 3.573,2.5665 4.63242,4.10414 2.84591,4.13058 -1.56525,0.0231 -7.08831,-2.90346 -12.27346,-6.5036 -5.18513,-3.60014 -9.76982,-6.24577 -10.18818,-5.87917 -0.41835,0.36662 3.30332,5.37761 8.2704,11.13554 4.96708,5.75794 12.3236,16.82842 16.34783,24.60106 9.9155,19.15142 9.69015,18.87249 16.95767,20.98924 7.88592,2.29686 13.1942,0.48149 17.56899,-6.0084 z m -50.9128,-3.34265 c 0.64492,-0.91443 1.97597,-1.6626 2.95789,-1.6626 0.98191,0 1.78529,0.74817 1.78529,1.6626 0,0.91443 -1.33105,1.6626 -2.95788,1.6626 -1.62684,0 -2.43022,-0.74817 -1.7853,-1.6626 z m -2.72283,10.07742 c -2.06592,-1.14556 -1.15041,-1.88128 3.79454,-3.0494 7.8464,-1.85353 9.73358,-0.95471 4.72882,2.25221 -4.29373,2.75131 -4.8975,2.80777 -8.52336,0.79719 z m 13.99889,1.19082 c 1.62441,-2.03231 2.95349,-5.44008 2.95349,-7.57282 0,-5.73142 -10.49004,-26.30812 -17.44385,-34.21692 -3.33045,-3.78783 -6.31756,-7.1987 -6.63803,-7.57971 -0.32046,-0.38101 -0.95838,-0.3635 -1.4176,0.0389 -0.45922,0.40242 1.73077,4.34397 4.86664,8.759 3.13587,4.41503 5.32059,8.36119 4.85497,8.76923 -0.46563,0.40803 -3.80474,-2.28658 -7.42024,-5.988 -8.90995,-9.12176 -10.13151,-8.46763 -2.98924,1.60071 3.25025,4.58184 5.48702,8.70088 4.9706,9.15344 -0.51643,0.45254 -4.58432,-2.96564 -9.03976,-7.59596 -4.45544,-4.63032 -8.52393,-8.04798 -9.04109,-7.59479 -0.51716,0.4532 1.26313,4.79865 3.95617,9.65657 2.69307,4.85793 6.20526,14.3399 7.80491,21.07104 1.59962,6.73115 3.37748,12.90354 3.9508,13.71644 0.57332,0.81289 4.78557,1.478 9.36055,1.478 6.44498,0 8.98329,-0.83212 11.27168,-3.69514 z M 590.2403,90.931355 c 2.72875,-2.971895 6.83737,-8.209079 9.13024,-11.638188 3.6221,-5.417011 7.2647,-8.09958 7.2647,-5.350042 0,3.036354 -6.68129,13.968486 -10.89061,17.819529 -7.29801,6.676861 -11.7771,6.0004 -5.50433,-0.831299 z m -71.59447,80.985955 c -1.96784,-4.49377 -1.36705,-5.75339 2.7441,-5.75339 2.95124,0 3.77591,0.89681 3.32022,3.61062 -0.75039,4.46886 -4.47018,5.78321 -6.06432,2.14277 z m 10.59423,38.81612 c -5.25085,-4.60138 -1.12563,-8.26182 5.29882,-4.70181 2.52178,1.39739 2.51252,1.86924 -0.0814,4.14291 -2.28635,2.00413 -3.42864,2.1265 -5.2175,0.5589 z m -14.62254,36.89781 c -1.38349,-1.96165 0.41108,-4.9878 2.95788,-4.9878 0.98192,0 1.7853,1.49634 1.7853,3.3252 0,3.50655 -2.76031,4.47412 -4.74318,1.6626 z m -24.74256,28.15356 c -0.68782,-0.97527 -0.79502,-2.17244 -0.2382,-2.66039 1.35905,-1.19094 5.0594,0.90749 5.0594,2.86912 0,2.12476 -3.27547,1.98294 -4.8212,-0.20873 z m -28.38107,20.06179 c 0.64492,-0.91443 1.97597,-1.6626 2.95788,-1.6626 0.98192,0 1.7853,0.74817 1.7853,1.6626 0,0.91443 -1.33105,1.6626 -2.95789,1.6626 -1.62683,0 -2.43022,-0.74817 -1.78529,-1.6626 z m 11.20337,54.62381 c -3.58918,-3.54234 -3.58537,-3.55383 0.54892,-1.65365 4.61176,2.11963 7.45141,5.22078 4.78054,5.22078 -0.94334,0 -3.34161,-1.60521 -5.32946,-3.56713 z m 9.37238,7.78773 c 2.71275,-1.80116 3.21851,-3.56611 2.2479,-7.84447 -2.55813,-11.27599 -9.19877,-29.6281 -10.7208,-29.6281 -0.86567,0 -0.77392,1.84394 0.20388,4.09764 2.72308,6.27636 -1.35847,6.9606 -5.20966,0.87338 -1.8164,-2.87099 -4.43311,-6.47326 -5.81494,-8.00505 -2.25722,-2.50219 -2.4198,-2.40511 -1.60057,0.95578 0.5015,2.05747 0.0945,3.74085 -0.90464,3.74085 -2.1122,0 -6.91571,-9.47453 -8.645,-17.05156 l -1.19515,-5.2366 5.1214,3.53021 c 4.97386,3.42849 11.49245,3.31093 18.2123,-0.32846 3.44936,-1.86813 2.18058,-14.2903 -2.07605,-20.32577 -5.87318,-8.32757 -2.22762,-10.7543 7.38561,-4.91635 8.34064,5.06514 13.00205,5.51619 18.99462,1.838 5.57312,-3.42074 5.33682,-8.63758 -0.8957,-19.77361 -2.81184,-5.02407 -4.5066,-9.66556 -3.76613,-10.31443 0.74045,-0.64887 4.23344,1.27244 7.7622,4.26959 l 6.41589,5.44936 6.90219,-2.87017 c 3.79621,-1.57859 7.8046,-4.34778 8.90752,-6.15373 3.04935,-4.993 0.366,-13.44132 -5.9547,-18.74792 -8.55642,-7.1836 -7.53239,-9.4657 3.9612,-8.8277 9.34738,0.51888 9.79601,0.33465 15.31835,-6.2909 5.47297,-6.56629 5.58432,-7.04493 2.93278,-12.60599 -4.1887,-8.785 -11.4896,-12.98923 -22.55656,-12.98923 -9.90949,0 -10.90727,-2.35155 -1.74592,-4.11483 7.26866,-1.399 13.41075,-7.42982 14.70947,-14.44298 0.85425,-4.61296 0.0649,-6.77211 -4.03832,-11.04529 -6.08074,-6.33268 -13.7712,-7.02003 -21.88652,-1.95618 -5.95516,3.71595 -7.91576,2.70252 -5.51871,-2.85258 1.7634,-4.08663 9.09146,-7.82169 18.38298,-9.36964 8.26725,-1.3773 33.0553,-14.05853 50.84552,-26.01188 25.35145,-17.03377 40.63041,-36.217061 40.66989,-51.062517 0.009,-3.832355 1.00928,-7.504486 2.22015,-8.160298 1.63799,-0.887112 1.89447,2.298043 1.00188,12.441439 -1.31597,14.95414 -0.29177,16.545479 9.29208,14.437604 4.38509,-0.964457 25.44988,-17.467989 25.44988,-19.939092 0,-0.547427 -3.41509,-0.516769 -7.58909,0.06817 -4.174,0.584885 -7.58909,0.648579 -7.58909,0.141487 0,-0.507059 4.63654,-2.782042 10.30342,-5.055529 10.09361,-4.049441 18.03379,-11.412174 25.10321,-23.277622 2.74196,-4.602172 2.70142,-4.695211 -1.59266,-3.654757 -4.2664,1.033754 -4.28935,0.985754 -0.72339,-1.512349 2.02556,-1.418995 4.58688,-2.595549 5.69181,-2.614586 2.55645,-0.04406 18.13579,-20.709889 18.13579,-24.0569482 0,-2.8094751 -2.11711,-3.2620842 -4.83805,-1.0343023 -0.99132,0.8116638 -3.93684,2.0264075 -6.54559,2.6994605 -3.95756,1.021035 -3.54788,0.381899 2.47344,-3.8588734 10.80193,-7.60770039 13.77266,-11.7039434 17.18724,-23.6989076 4.29081,-15.073149 4.20798,-15.441648 -2.76154,-12.283359 -8.5224,3.861983 -8.91204,1.77735 -1.08655,-5.813142 8.45375,-8.199868 9.55121,-11.844366 8.47457,-28.142418 -1.05354,-15.948058 -2.83453,-19.141743 -6.97005,-12.498815 l -2.99414,4.809514 -1.15307,-10.124508 c -1.94947,-17.11743 -11.2403,-29.429641 -28.03626,-37.153691 -6.17701,-2.84064 -6.62568,-1.66505 -2.56646,6.72487 12.53621,25.91091 13.51583,54.004913 2.91039,83.466769 -15.33104,42.589648 -59.63812,92.425814 -105.00574,118.109432 -10.95675,6.202855 -31.81811,18.019699 -46.35858,26.259659 -31.95715,18.10981 -48.34036,31.42721 -56.47452,45.90635 -10.0949,17.96926 -7.41699,31.69968 7.35616,37.71737 9.27411,3.7777 11.99695,8.09411 11.99695,19.01827 0,6.97354 -0.87668,8.72589 -7.08882,14.16966 -3.89886,3.41661 -12.90043,8.88817 -20.00348,12.15905 -7.10306,3.27086 -13.71346,7.25501 -14.6898,8.85364 -0.97632,1.59863 -2.34332,7.28726 -3.03778,12.64138 -1.05631,8.14402 -2.4365,10.86292 -8.44609,16.63852 -3.9509,3.79706 -8.25917,10.05007 -9.57394,13.89559 -1.73898,5.08627 -4.3159,8.05697 -9.45504,10.8999 -7.67403,4.24518 -13.50628,10.41342 -11.94259,12.63057 1.62257,2.30064 22.15221,1.56961 32.65146,-1.16267 10.47159,-2.72508 25.14108,-3.594 28.64431,-1.69668 3.66351,1.98411 9.12668,12.99201 11.54652,23.26539 1.60439,6.81133 3.97907,11.3197 7.66274,14.54773 6.04492,5.29722 7.08829,5.49306 11.97599,2.24785 z M 93.056571,91.945207 C 93.724619,91.359806 88.823585,84.767288 82.165391,77.295189 67.072778,60.35762 55.004417,43.037901 45.732541,25.009119 c -3.937106,-7.65555 -7.448863,-13.155509 -7.8039,-12.222126 -1.393452,3.663269 15.802725,32.389941 33.294212,55.618899 10.123087,13.44362 18.903646,24.479115 19.512348,24.523324 0.608721,0.04422 1.653321,-0.398592 2.32137,-0.984009 z m 5.10962,37.392733 c 0,-1.05128 -4.366079,-5.5798 -9.702405,-10.06338 -5.336326,-4.48356 -9.174944,-8.61417 -8.530251,-9.1791 0.644693,-0.56495 3.299869,0.72444 5.900385,2.86532 7.84359,6.45723 7.696931,2.28396 -0.206291,-5.86984 C 73.343852,94.417673 65.956821,85.791183 62.891701,80.540116 c -2.648213,-4.536849 -2.257318,-4.379583 4.323581,1.739343 3.979245,3.699913 10.171525,9.634076 13.760633,13.187015 C 93.005686,107.37505 89.09683,98.306291 74.595122,80.662666 56.677014,58.862478 42.888055,36.40194 34.488374,15.333628 27.208349,-2.9263225 25.802888,-11.564435 31.842684,-0.92719778 33.919534,2.7305183 35.118117,4.2268567 34.506208,2.3979987 29.798715,-11.671839 25.847948,-29.831618 24.817843,-42.134811 24.145222,-50.168137 23.021543,-57.051377 22.320786,-57.430898 20.025902,-58.673773 6.5871026,-41.252121 3.8382772,-33.470713 -0.23368706,-21.943819 1.5359749,-11.799144 9.2730524,-2.3157001 19.34867,10.034096 19.735676,10.879976 13.605816,7.1540771 2.615542,0.47389037 2.6175152,0.47382387 3.9160275,7.5468326 6.7210501,22.825894 11.209238,31.933691 20.046753,40.280549 c 8.625171,8.146316 8.250821,9.061892 -2.171657,5.311586 -3.285753,-1.182307 -3.305731,-0.93611 -0.415616,5.125324 4.56368,9.571445 11.134979,16.292416 21.784901,22.281161 5.275992,2.966823 9.592724,5.773588 9.592724,6.237254 0,0.463649 -3.112685,0.331289 -6.917058,-0.29413 l -6.917076,-1.137151 6.529369,8.018163 c 3.591138,4.409975 10.759243,10.427849 15.929102,13.373025 5.169859,2.945189 11.107297,6.525419 13.194297,7.956049 3.600815,2.46836 3.455522,2.54978 -2.845909,1.59466 l -6.640454,-1.00652 13.530627,11.75471 c 9.84491,8.55272 14.883857,11.75468 18.498408,11.75468 2.732281,0 4.96778,-0.86014 4.96778,-1.91142 z m -36.041158,19.37525 c -2.446913,-2.28246 -4.027607,-4.51915 -3.51263,-4.97045 0.514977,-0.45128 3.381699,1.4162 6.370472,4.14995 2.988793,2.73374 4.569467,4.97045 3.51263,4.97045 -1.056819,0 -3.923541,-1.86748 -6.370472,-4.14995 z m 16.410079,17.33169 c -2.498898,-4.96388 -5.113814,-11.31872 -5.810928,-14.12184 -0.800611,-3.21929 -6.132232,-9.32696 -14.474558,-16.58139 -16.783634,-14.59495 -17.304947,-17.80834 -0.677858,-4.17839 6.891046,5.64891 13.001212,9.85713 13.578116,9.35156 0.576903,-0.50554 -6.597822,-7.84723 -15.943863,-16.31486 C 37.712902,108.35098 21.411878,89.520191 13.813377,76.38362 7.1508962,64.865256 6.160444,59.493684 12.511241,69.321634 c 13.197713,20.42369 38.029709,46.621646 56.01517,59.096476 10.591088,7.34602 7.160553,3.09507 -12.591837,-15.60322 C 33.912836,91.968367 12.90705,59.777606 1.5128851,29.41522 -0.83817707,23.150251 -3.7964803,18.192682 -5.1838419,18.192682 c -3.5387738,0 -8.8142541,12.473693 -9.9955721,23.634166 -1.054845,9.965448 1.140792,17.141721 7.4712509,24.419345 4.1975638,4.825592 3.320227,6.108868 -2.3563179,3.446633 -4.084107,-1.91538 -4.166581,-1.789754 -2.853118,4.345616 2.910549,13.595498 15.1159687,29.892338 26.180843,34.956978 6.70684,3.06987 6.980692,6.13311 0.350806,3.92421 -6.6896692,-2.22881 -6.9518154,-2.11491 -4.4731616,1.94365 4.7325376,7.74903 17.2697146,17.71097 25.9420146,20.61329 l 9.000566,3.01219 -5.248311,1.8799 -5.24833,1.8799 4.304911,3.45021 c 5.25203,4.2093 15.394982,8.82697 19.388874,8.82697 1.617064,0 2.940127,0.74817 2.940127,1.6626 0,0.91442 -0.853773,1.66259 -1.897272,1.66259 -4.552108,0 -1.021454,3.79473 10.870745,11.68383 7.022432,4.65855 13.019217,7.80979 13.326196,7.00273 0.306998,-0.80704 -1.486399,-5.52872 -3.985297,-10.49261 z M 122.18669,123.2313 c -3.55722,-3.44449 -4.01653,-5.28272 -1.31997,-5.28272 2.02797,0 6.53198,6.52682 5.26823,7.63428 -0.43878,0.38449 -2.2155,-0.6737 -3.94826,-2.35156 z m 1.65419,14.7195 c -9.56812,-5.52688 -12.31089,-9.98938 -12.29391,-20.00222 0.0171,-9.8239 2.25131,-8.82765 4.46747,1.99167 0.69264,3.38149 4.2172,9.2506 7.83236,13.04244 8.87721,9.31108 8.87628,10.09875 -0.006,4.96811 z m 69.18894,38.3429 c 0,-2.33788 -4.9615,-5.40432 -18.8841,-11.6713 -18.15379,-8.17156 -28.08157,-14.49497 -14.96465,-9.53158 3.48607,1.31911 12.48134,4.72427 19.98953,7.56705 15.11593,5.72321 15.75649,5.86749 15.75649,3.54875 0,-0.89095 -2.77476,-2.85964 -6.16613,-4.37484 -10.46519,-4.67571 -31.77932,-17.63578 -31.77932,-19.32344 0,-0.87964 3.62853,0.24698 8.06341,2.50363 21.95406,11.17108 30.15741,14.81445 31.23326,13.87169 1.49822,-1.31292 1.97961,-0.99858 -13.68349,-8.93534 -13.34752,-6.7634 -24.90527,-14.88571 -23.24819,-16.33784 0.48949,-0.42895 8.48191,3.30079 17.76092,8.28831 16.39291,8.81128 29.31737,13.49886 26.6016,9.64819 -0.69865,-0.99063 -7.85902,-5.30649 -15.91193,-9.59078 -19.66514,-10.46225 -39.32175,-23.62671 -50.19106,-33.61397 -9.52387,-8.751016 -21.81395,-13.323577 -30.61076,-11.388795 -11.015986,2.422838 -6.88058,24.428235 7.8991,42.032825 6.74594,8.03532 36.59418,26.01381 57.35736,34.5481 16.28632,6.69415 20.77796,7.29064 20.77796,2.75934 z m -86.3259,-8.46718 c -1.90029,-1.84006 -3.02818,-3.71966 -2.50643,-4.17688 0.52175,-0.45721 2.50341,0.67422 4.4037,2.51428 1.90029,1.84007 3.02818,3.71967 2.50643,4.17688 -0.52175,0.45722 -2.50341,-0.67421 -4.4037,-2.51428 z m -5.50264,8.23552 c -6.994317,-5.38148 -13.728724,-18.04382 -11.862794,-22.30491 2.037803,-4.65361 5.03316,-2.65279 5.03316,3.36203 0,4.84423 1.771996,7.5605 9.761584,14.96338 10.68454,9.89998 8.54216,12.80779 -2.93195,3.9795 z m 83.29081,28.5713 c 0,-1.26654 -7.2423,-4.60656 -16.87591,-7.78286 -16.32351,-5.38199 -21.84419,-8.11683 -19.8727,-9.84449 0.51915,-0.45492 8.42626,1.40303 17.57136,4.12878 27.90543,8.31738 27.20607,6.20284 -2.20647,-6.67151 -10.71754,-4.69125 -19.0566,-9.139 -18.53125,-9.88391 0.52536,-0.74491 10.79277,2.35514 22.81647,6.88897 12.02372,4.53384 22.92305,7.93321 24.22077,7.55414 1.2977,-0.37906 -8.60535,-5.2855 -22.00679,-10.90321 -25.69613,-10.77146 -43.35639,-20.35828 -54.36593,-29.51238 -3.65225,-3.03673 -9.19289,-6.36369 -12.31252,-7.39322 -7.507258,-2.47754 -17.476097,-0.69973 -20.091715,3.58311 -5.058204,8.2823 5.842234,29.82362 19.123335,37.79132 16.26321,9.75676 39.33362,18.31221 58.40304,21.65822 20.43798,3.58614 24.12831,3.64533 24.12831,0.38704 z m -98.343944,14.02049 c -0.572199,-1.3067 -1.616666,-5.06782 -2.321047,-8.35803 -0.782094,-3.65324 -2.856648,-6.69799 -5.328756,-7.82076 -7.311709,-3.32081 -28.041005,-16.67136 -27.127905,-17.47152 0.49128,-0.43053 7.758004,2.71257 16.148275,6.98465 20.408335,10.39132 24.06288,8.6002 5.007225,-2.45408 C 45.602824,173.91586 20.623542,154.3228 6.4970012,137.74282 -4.43459,124.91267 2.3465277,128.79638 22.141949,146.70306 c 11.40515,10.31697 27.413387,22.95556 35.57386,28.08579 17.3542,10.91002 40.450382,22.31885 40.450382,19.98131 0,-0.89415 -5.762965,-4.65077 -12.80659,-8.34809 C 66.975751,176.77208 44.501856,160.45012 25.47946,142.9333 7.5970208,126.46623 -0.08936154,116.877 -11.884401,96.319486 c -4.192461,-7.307003 -8.261522,-13.285473 -9.042364,-13.285473 -3.753469,0 -6.64514,8.154961 -6.571013,18.531207 0.0647,9.06367 1.106242,12.84881 5.479456,19.91405 5.568722,8.99668 14.0588842,17.57574 20.4828214,20.69729 2.28583395,1.11074 2.9006072,2.19911 1.63066779,2.8869 -1.12113629,0.60718 -4.19443329,-0.38217 -6.82953609,-2.19857 -6.3838291,-4.4004 -7.6968931,-4.16498 -6.1863231,1.1092 3.426797,11.96462 18.4478644,24.62596 34.247345,28.86726 10.337745,2.77513 12.594702,4.96076 5.122636,4.96076 -3.3392,0 -6.071273,0.64727 -6.071273,1.43838 0,5.87418 19.312964,16.8502 29.648906,16.8502 4.999902,0 6.09275,2.89464 1.656092,4.38655 -1.56525,0.52636 -2.845909,1.46382 -2.845909,2.08325 0,2.44296 11.389593,6.83099 17.730524,6.83099 6.998299,0 10.482753,2.23453 6.688683,4.28937 -1.398328,0.75731 0.151402,2.29385 4.237918,4.20168 7.883794,3.68068 10.010959,3.87028 8.653916,0.7713 z m 32.413724,-1.60118 c -5.29986,-3.52554 -3.84207,-4.65784 2.37159,-1.84208 3.1305,1.41861 5.69182,2.93416 5.69182,3.36789 0,1.55179 -4.80327,0.64288 -8.06341,-1.52581 z m -2.46566,9.9514 c -5.9869,-2.28518 -16.03275,-11.49893 -16.03275,-14.70475 0,-1.00366 1.92983,-0.23611 4.28852,1.70567 2.35869,1.9418 10.10469,6.18715 17.21333,9.43412 12.00156,5.48187 12.47449,5.89891 6.62078,5.83849 -3.46719,-0.0357 -8.90764,-1.05887 -12.08988,-2.27353 z m 81.52161,9.64242 c 6.95335,-2.33821 2.0225,-3.97862 -11.95923,-3.97862 -8.72825,0 -19.00281,-1.1441 -24.66454,-2.74646 -10.51114,-2.97482 -13.65325,-6.32688 -3.55061,-3.78786 3.38448,0.85058 12.88052,1.54653 21.1023,1.54653 12.66395,0 14.60863,-0.35907 12.72368,-2.34939 -1.22378,-1.29217 -6.6644,-2.84452 -12.09028,-3.44969 -13.30168,-1.48358 -31.50751,-5.90658 -32.9952,-8.016 -0.73383,-1.04049 0.0133,-1.30229 1.90439,-0.66663 5.42041,1.82272 35.64446,4.89442 36.94498,3.75474 2.22205,-1.94718 -3.59503,-3.82758 -15.47736,-5.00311 -6.39413,-0.63258 -20.67145,-3.71153 -31.72741,-6.84212 -20.95321,-5.93308 -28.55634,-6.7814 -36.63994,-4.08818 -10.506011,3.50032 -6.986115,18.22653 6.18175,25.86278 14.31151,8.29944 26.82199,10.58546 58.46816,10.68377 15.82803,0.0492 30.12872,-0.3647 31.77931,-0.91976 z M 107.2731,262.2621 c 3.83289,-3.3588 2.5664,-5.76404 -3.88941,-7.38654 -3.391374,-0.85233 -6.166135,-2.46887 -6.166135,-3.59233 0,-1.12345 -2.561318,-3.57862 -5.691818,-5.45593 l -5.691817,-3.4133 8.537726,0.95562 8.537724,0.95562 -6.640451,-2.71508 c -38.695386,-15.82142 -58.81545,-26.24974 -58.81545,-30.48429 0,-0.79118 8.75117,2.55558 19.447044,7.43723 21.95262,10.01928 44.402537,17.82665 48.774377,16.96216 1.60946,-0.31825 -1.76945,-2.01294 -7.508699,-3.76597 C 83.000836,227.12713 50.334963,212.12863 37.950612,204.1114 32.06808,200.30323 21.236039,191.70351 13.879403,185.0009 6.5227661,178.29828 -0.26326554,172.81432 -1.200651,172.81432 c -2.5873296,0 0.1953432,14.27111 4.4868978,23.01139 2.3636222,4.8138 8.2944582,11.39235 15.6652292,17.37609 l 11.861539,9.62942 -7.58909,-1.09904 -7.58909,-1.09904 8.537726,7.87446 c 9.82791,9.06444 20.683611,14.04701 30.718703,14.09933 7.61679,0.0397 11.00769,2.37253 5.930361,4.07989 -5.810738,1.95398 1.787212,6.13618 21.606671,11.89309 21.585744,6.26994 21.847514,6.30875 24.844804,3.68219 z m 19.39024,14.50479 c -1.49647,-1.58011 -1.64042,-2.53408 -0.38234,-2.53408 2.29295,0 4.96628,3.15428 3.65054,4.30729 -0.47754,0.41848 -1.94823,-0.37947 -3.2682,-1.77321 z m -3.38003,7.99665 c -3.17091,-1.11946 -6.90395,-7.20553 -4.41968,-7.20553 1.02203,0 4.25373,1.84678 7.18154,4.10395 4.98696,3.84466 3.63703,5.36065 -2.76186,3.10158 z m 16.54046,1.3761 c 5.78458,-3.50996 19.05514,-9.24192 29.49014,-12.73768 19.58407,-6.56073 33.20227,-13.01233 33.20227,-15.72951 0,-0.93282 -2.22438,-0.87574 -5.55796,0.14265 -3.05687,0.93383 -7.96606,1.41333 -10.90932,1.06556 l -5.35135,-0.63229 5.69182,-2.00964 c 13.40125,-4.73168 13.19841,-5.03043 -2.84591,-4.19158 -11.71382,0.61243 -15.34807,0.35806 -13.28091,-0.92961 1.56525,-0.97501 5.2212,-1.78422 8.12435,-1.79822 5.36323,-0.0259 19.65417,-4.50575 18.25445,-5.72236 -0.4211,-0.36602 -12.39666,0.68905 -26.61237,2.3446 -36.17847,4.21329 -47.45039,9.21274 -55.14662,24.45931 -3.09404,6.12942 -3.33562,8.20314 -1.51788,13.02965 4.10517,10.90024 11.68153,11.67598 26.45929,2.70915 z m 15.41039,22.31498 c -0.0823,-1.75265 0.36602,-2.73463 0.99648,-2.18216 0.63045,0.55246 0.69784,1.98645 0.1497,3.18665 -0.60565,1.3263 -1.05523,0.93235 -1.14626,-1.00449 z m -5.5109,6.82034 c -2.50785,-2.33931 -4.02396,-5.76157 -3.86688,-8.72864 0.23898,-4.51439 0.32316,-4.56872 1.12163,-0.72414 1.35499,6.52425 6.0507,9.97279 13.61792,10.00104 5.10218,0.0191 6.10365,0.43154 3.9748,1.63714 -4.77526,2.7043 -10.51041,1.86014 -14.84747,-2.1854 z m 31.73748,-5.19096 c 8.97175,-7.71471 20.58112,-16.94254 25.79862,-20.50627 16.73932,-11.43356 19.41014,-17.38549 4.41782,-9.84505 -4.5168,2.27175 -10.34679,4.6191 -12.95554,5.21637 -4.1405,0.94797 -3.7789,0.31503 2.84591,-4.98126 4.174,-3.33696 6.73531,-5.74419 5.69181,-5.34937 -1.0435,0.39481 -5.16826,2.02983 -9.16612,3.63339 -3.99787,1.60356 -7.8385,2.41635 -8.53475,1.80623 -1.41371,-1.23885 0.95632,-2.87621 13.9608,-9.6449 15.04565,-7.83112 7.76468,-7.075 -11.67098,1.212 -10.09946,4.30621 -22.77084,9.27481 -28.1586,11.04128 -16.1263,5.28733 -21.64382,11.63348 -22.34232,25.69782 -0.50837,10.23595 5.52803,15.39679 18.29472,15.64112 4.42725,0.0848 8.70323,-2.64354 21.81863,-13.92136 z m 6.8259,24.00235 c -1.48401,-2.10419 1.02762,-2.10419 4.74318,0 2.45258,1.38893 2.4025,1.61519 -0.36234,1.63714 -1.76454,0.0133 -3.73592,-0.72271 -4.38084,-1.63714 z m -3.6123,6.37388 c -3.82512,-4.78565 -3.92105,-7.43042 -0.17056,-4.70277 1.57168,1.14303 5.45597,2.54394 8.63176,3.11311 7.69526,1.37918 8.01823,4.23386 0.55085,4.86914 -4.48458,0.38153 -6.74258,-0.44016 -9.01205,-3.27948 z m 18.99072,4.86812 c 1.25259,-1.15374 5.00333,-7.90033 8.33496,-14.99241 3.33165,-7.0921 10.76552,-18.54402 16.51972,-25.44876 5.75422,-6.90474 10.12833,-12.84663 9.72026,-13.20422 -0.40806,-0.35759 -4.98432,2.29542 -10.16945,5.89556 -11.12442,7.72388 -18.39858,8.97636 -8.47892,1.45992 l 6.64046,-5.03168 -8.06341,3.44761 c -10.1244,4.32879 -10.24935,2.84475 -0.38359,-4.55544 12.12942,-9.09813 7.07108,-8.33926 -6.22829,0.9344 -14.47794,10.09546 -28.40276,22.89956 -32.55357,29.9335 -5.79761,9.82459 -2.7715,20.23926 7.22661,24.87112 4.0817,1.89094 13.78978,0.048 17.43522,-3.3096 z m 19.72112,-6.25421 c 0,-0.91443 1.23027,-1.6626 2.73393,-1.6626 1.50367,0 3.2616,0.74817 3.90652,1.6626 0.64492,0.91443 -0.58534,1.6626 -2.73393,1.6626 -2.14858,0 -3.90652,-0.74817 -3.90652,-1.6626 z m 1.42295,10.48177 c -1.82612,-0.41249 -3.32022,-1.75268 -3.32022,-2.9782 0,-2.65455 9.39245,-1.02388 9.45027,1.64072 0.0431,1.98283 -1.64381,2.35087 -6.13005,1.33748 z m 18.63515,-11.57777 c 2.29816,-8.21003 6.04188,-18.12811 8.31937,-22.04017 2.27748,-3.91206 3.79204,-7.41853 3.36566,-7.79215 -0.42635,-0.37363 -4.42056,3.10913 -8.87601,7.73945 -4.45544,4.63032 -8.49797,8.07073 -8.98341,7.64534 -1.11036,-0.97304 4.57897,-10.92237 8.46829,-14.80908 1.60695,-1.60585 2.47836,-3.30824 1.93652,-3.78307 -0.54186,-0.47483 -4.18952,2.56344 -8.1059,6.75171 -8.38269,8.96461 -10.79143,8.79348 -4.32806,-0.30747 7.70237,-10.84557 7.66572,-11.64309 -0.19487,-4.24012 -7.7876,7.33422 -19.24878,28.53279 -19.24878,35.60254 0,5.69241 4.96935,10.99018 10.93004,11.65237 10.55651,1.17277 12.26148,-0.50182 16.71715,-16.41935 z M 137.51589,91.762654 c -5.02942,-4.601341 -11.86767,-16.739621 -10.23599,-18.169472 0.48228,-0.422649 3.64858,2.837939 7.03622,7.245736 3.38764,4.407814 7.88761,9.69757 9.99995,11.755035 5.82993,5.678421 -0.53537,4.900292 -6.80018,-0.831299 z m 71.95696,81.605856 c -2.34098,-2.05143 -1.29022,-7.20459 1.46908,-7.20459 3.5919,0 5.14971,2.3806 3.7097,5.66907 -1.22795,2.80415 -3.09826,3.35871 -5.17878,1.53552 z m -11.92752,36.93389 c -1.47115,-3.35958 0.71679,-5.89872 5.08283,-5.89872 4.1301,0 4.86201,3.28921 1.40584,6.31788 -3.03247,2.65738 -5.20283,2.51719 -6.48867,-0.41916 z m 16.35449,35.5277 c 0,-4.05184 4.43349,-3.47911 5.3566,0.69197 0.3631,1.64058 -0.60477,2.77177 -2.37159,2.77177 -1.75996,0 -2.98501,-1.42153 -2.98501,-3.46374 z m 25.02028,29.9614 c 0.45652,-1.2002 1.95062,-2.5095 3.32023,-2.90955 1.42295,-0.41565 2.13443,0.20782 1.66011,1.45477 -0.45654,1.20018 -1.95064,2.50948 -3.32023,2.90955 -1.42295,0.41565 -2.13443,-0.20783 -1.66011,-1.45477 z m 28.10335,20.05509 c 0,-0.91443 0.80338,-1.6626 1.78529,-1.6626 0.98192,0 2.31297,0.74817 2.95789,1.6626 0.64492,0.91443 -0.15842,1.6626 -1.7853,1.6626 -1.62683,0 -2.95788,-0.74817 -2.95788,-1.6626 z m -10.435,54.86574 c 1.88872,-1.82886 4.2878,-3.3252 5.3313,-3.3252 1.0435,0 0.35196,1.49634 -1.53676,3.3252 -1.88871,1.82886 -4.28779,3.3252 -5.33129,3.3252 -1.0435,0 -0.35197,-1.49634 1.53675,-3.3252 z m 5.52706,6.23474 c 3.1804,-2.48379 6.06065,-7.84297 8.57121,-15.94822 7.52481,-24.29354 12.36255,-27.1222 37.3374,-21.83155 16.98286,3.59765 33.94899,4.2979 35.93415,1.48316 1.62888,-2.30958 -7.50254,-10.68935 -14.36097,-13.1788 -4.05956,-1.47353 -5.78791,-3.67742 -7.46723,-9.52164 -1.50104,-5.22386 -4.82605,-9.95178 -10.62175,-15.10339 -7.76813,-6.90482 -8.43669,-8.17268 -8.43669,-15.9995 0,-4.84554 -1.21735,-10.02345 -2.83126,-12.04265 -1.55721,-1.94823 -9.58766,-6.95727 -17.84545,-11.13121 -19.14164,-9.67522 -22.96912,-13.83878 -22.9326,-24.94607 0.0362,-10.99672 3.13178,-15.98086 11.35567,-18.28339 5.12947,-1.43617 7.64816,-3.63901 11.06903,-9.68096 4.35654,-7.69452 4.37731,-7.97623 1.27725,-17.3211 -7.16056,-21.58477 -22.54406,-35.46991 -66.41854,-59.94937 C 165.55073,84.928494 156.46484,79.085359 137.0677,62.251535 107.08406,36.230227 79.749974,-0.79987601 70.042503,-28.549006 62.805319,-49.236716 61.32759,-64.444835 64.813373,-82.3651 c 1.705951,-8.770289 4.868989,-20.0851 7.028939,-25.14404 2.159969,-5.05894 3.383236,-9.67477 2.718375,-10.2574 -2.148111,-1.88239 -14.45052,5.08908 -20.193279,11.44305 -7.881631,8.720478 -11.212673,16.628576 -11.282454,26.785123 -0.05483,7.982101 -0.307852,8.495544 -2.777493,5.636723 -1.494425,-1.729933 -3.057948,-3.974441 -3.474457,-4.987794 -1.589155,-3.866273 -3.273724,0.603756 -5.13825,13.634386 -2.19708,15.354677 -0.584872,20.690037 9.685785,32.05383 6.186019,6.844401 5.531327,8.297412 -1.730332,3.840269 -6.066661,-3.723655 -6.946389,-2.037215 -4.314094,8.270213 3.363295,13.169856 9.66907,22.9317018 17.768849,27.5075711 8.646422,4.8846799 8.071264,6.2146089 -1.216872,2.8137979 -5.628449,-2.0608404 -6.84553,-2.1049657 -6.84553,-0.2481927 0,4.2674907 16.130763,23.3424637 21.818634,25.8010137 5.347368,2.311361 5.433485,2.49448 1.422954,3.025962 -2.347874,0.311139 -4.234257,1.074804 -4.191966,1.697031 0.04231,0.622227 3.680689,5.246246 8.085322,10.275605 5.471202,6.247197 11.307516,10.609206 18.421529,13.768093 12.263097,5.445275 14.532157,8.34478 4.661334,5.956424 -3.814998,-0.923074 -7.314593,-1.346887 -7.776864,-0.941779 -1.784555,1.563824 19.495047,19.29151 24.433667,20.35529 9.51503,2.049535 10.39271,0.716148 9.40182,-14.283481 -0.65881,-9.97278 -0.31855,-13.376318 1.2522,-12.525616 1.18625,0.642445 2.15682,4.526839 2.15682,8.631977 0,13.762623 13.26939,31.428664 35.09444,46.722584 22.60693,15.84182 50.91767,30.4098 59.09698,30.4098 5.46054,0 15.85039,7.72567 15.85039,11.78598 0,4.00671 -1.07695,3.98422 -7.07139,-0.1478 -7.14854,-4.92753 -14.43815,-4.28377 -20.27042,1.79016 -2.76677,2.88144 -4.91183,7.18218 -4.91183,9.84804 0,6.10666 7.99372,14.41188 15.2077,15.80037 5.95207,1.1456 9.48519,4.0301 5.29996,4.32698 -1.36596,0.0969 -4.90703,0.0336 -7.86901,-0.14082 -7.8343,-0.46103 -15.25079,2.74938 -18.91754,8.18891 -4.52663,6.71513 -3.98822,13.00986 1.66865,19.50906 4.68609,5.38384 5.24067,5.55981 14.22955,4.51488 11.49732,-1.33653 12.02167,0.50645 2.71296,9.5356 -8.16005,7.915 -8.68544,14.16158 -1.70555,20.27811 7.85807,6.8861 11.67823,7.14951 18.58692,1.2816 3.3366,-2.83396 6.66623,-5.15266 7.39919,-5.15266 2.74455,0 1.17631,5.04198 -3.41056,10.96507 -11.91969,15.39205 2.01305,29.68127 17.67809,18.1304 9.63808,-7.10679 13.97498,-3.95708 7.50839,5.45306 -3.61696,5.26337 -4.98428,15.0176 -2.58251,18.42307 0.64064,0.90836 4.20618,2.53115 7.92343,3.60621 6.09806,1.76361 7.2081,1.58463 11.35721,-1.83112 4.30415,-3.54338 4.59737,-3.58094 4.58003,-0.5864 -0.0213,3.68548 -8.67662,20.65663 -10.53485,20.65663 -0.68288,0 -0.7059,-1.87042 -0.0512,-4.15649 1.73288,-6.0503 0.23267,-5.13025 -5.42196,3.32519 -2.7519,4.11494 -5.91257,7.4817 -7.02373,7.4817 -1.11115,0 -1.61922,-0.93521 -1.12903,-2.07825 0.4902,-1.14304 1.47954,-3.94867 2.19851,-6.23474 1.21144,-3.85196 1.1051,-3.93631 -1.45155,-1.15132 -1.51734,1.65285 -4.65319,9.72364 -6.96855,17.9351 -4.03931,14.32544 -4.07333,15.06202 -0.83994,18.19294 4.27103,4.13568 5.3039,4.09144 11.15467,-0.47781 z"
         inkscape:connector-curvature="0" />
    </g>
  </g>
</svg>
